<?xml version="1.0" encoding="utf-8" ?><svg xmlns="http://www.w3.org/2000/svg" xmlns:xlink="http://www.w3.org/1999/xlink" width="225" height="260" viewBox="0 0 225 260"><defs><linearGradient id="gradient_0" gradientUnits="userSpaceOnUse" x1="52.136684" y1="245.94774" x2="134.53085" y2="92.140945"><stop offset="0" stop-color="#6931DA"/><stop offset="1" stop-color="#4A6AEC"/></linearGradient></defs><path fill="url(#gradient_0)" d="M19.8028 228.308C30.0847 216.752 49.3763 198.484 48.8286 182.157C48.6053 175.502 42.1778 164.802 39.6741 157.688C30.4532 131.485 36.8823 99.6803 55.0689 78.7788C58.4556 74.8865 68.5353 64.3667 73.2551 64.2852C89.1328 64.5591 105.301 75.7401 116.999 85.6769C123.538 91.2306 133.205 100.645 133.687 109.41C134.089 116.715 124.808 124.399 120.008 129.441L96.1426 154.039C91.0701 159.214 85.9307 164.327 81.0702 169.701C79.634 171.288 78.1858 172.882 76.688 174.411L64.4187 186.74C62.0219 189.125 58.1007 192.665 56.3561 195.321C62.0009 192.688 67.8053 187.644 72.8563 183.922C85.1154 174.77 97.2142 165.405 109.147 155.832C114.939 151.186 120.623 146.166 126.576 141.751C131.433 138.15 136.232 133.207 141.503 130.425C153.058 124.53 158.503 136.864 162.338 145.268C167.78 157.256 169.876 169.836 169.415 182.948C169.256 187.47 169.617 196.25 165.578 199.07C156.861 205.104 144.51 210.398 134.023 212.313C123.432 214.247 109.756 213.492 99.2021 211.708C92.4174 210.561 85.2054 206.084 78.6084 204.486C70.0291 202.407 59.8992 204.564 52.0436 208.215C43.9312 211.868 38.466 216.621 31.5024 221.923C27.8139 224.731 23.9987 227.358 20.296 230.165C20.0322 229.538 19.9422 228.97 19.8028 228.308Z"/><path fill="#466AEC" d="M224.064 24.1625L224.506 24.3134L224.462 24.6892C213.587 36.3516 202.612 47.9198 191.537 59.3925C187.823 63.1969 183.84 67.1586 179.781 71.1421C172.257 78.5263 163.976 88.3786 155.534 94.5609C153.27 96.2189 148.198 95.8693 145.466 94.7472C138.947 92.0685 134.129 87.3366 128.439 83.3073C117.334 75.4431 106.854 69.6754 93.8055 65.6898C89.7266 63.9421 78.2145 62.1785 73.6235 62.7413C93.5365 49.6205 119.162 47.3063 141.897 53.2462C148.833 55.0581 154.982 59.3844 161.667 60.7461C182.944 65.08 199.708 45.3858 214.142 32.9168C217.33 30.1682 220.663 26.4499 224.064 24.1625Z"/><path fill="#466AEC" d="M186.527 91.2922C191.373 90.9251 191.461 95.9126 192.963 99.4181C198.506 112.361 199.726 126.605 198.946 140.567C197.842 160.34 186.858 180.364 172.411 193.434C171.847 194.042 171.728 194.219 170.956 194.55L170.664 194.362C170.635 193.364 172.32 188.438 172.641 186.455C173.967 178.252 174.855 170.585 174.368 162.259C173.96 155.743 172.941 149.28 171.325 142.954C168.798 132.914 162.398 120.523 166.304 110.724C168.478 105.273 181.293 93.4659 186.527 91.2922Z"/><path fill="#403A67" d="M13.8716 235.304C15.8279 232.954 17.805 230.622 19.8028 228.308C19.9422 228.97 20.0322 229.538 20.296 230.165C18.1743 231.902 16.0327 233.615 13.8716 235.304Z"/></svg>